<svg width="25" height="18" viewBox="0 0 25 18" fill="none" xmlns="http://www.w3.org/2000/svg">
<g filter="url(#filter0_d)">
<path fill-rule="evenodd" clip-rule="evenodd" d="M15.54 0.208095C15.6058 0.142131 15.684 0.0897967 15.77 0.0540883C15.8561 0.01838 15.9483 0 16.0415 0C16.1347 0 16.2269 0.01838 16.313 0.0540883C16.399 0.0897967 16.4772 0.142131 16.543 0.208095L20.7929 4.458C20.8589 4.5238 20.9112 4.60196 20.9469 4.68802C20.9826 4.77407 21.001 4.86632 21.001 4.95949C21.001 5.05266 20.9826 5.14491 20.9469 5.23097C20.9112 5.31702 20.8589 5.39518 20.7929 5.46098L16.543 9.71089C16.41 9.84389 16.2296 9.91861 16.0415 9.91861C15.8534 9.91861 15.673 9.84389 15.54 9.71089C15.407 9.57788 15.3323 9.39749 15.3323 9.2094C15.3323 9.0213 15.407 8.84091 15.54 8.70791L19.2898 4.95949L15.54 1.21107C15.474 1.14528 15.4217 1.06711 15.386 0.981059C15.3503 0.895005 15.3319 0.802752 15.3319 0.709584C15.3319 0.616415 15.3503 0.524162 15.386 0.438109C15.4217 0.352055 15.474 0.273891 15.54 0.208095Z" fill="white"/>
<path fill-rule="evenodd" clip-rule="evenodd" d="M4 4.95948C4 4.77162 4.07463 4.59146 4.20746 4.45862C4.3403 4.32579 4.52046 4.25116 4.70832 4.25116H19.583C19.7708 4.25116 19.951 4.32579 20.0838 4.45862C20.2167 4.59146 20.2913 4.77162 20.2913 4.95948C20.2913 5.14734 20.2167 5.3275 20.0838 5.46033C19.951 5.59317 19.7708 5.6678 19.583 5.6678H4.70832C4.52046 5.6678 4.3403 5.59317 4.20746 5.46033C4.07463 5.3275 4 5.14734 4 4.95948Z" fill="white"/>
</g>
<defs>
<filter id="filter0_d" x="0" y="0" width="25.001" height="17.9186" filterUnits="userSpaceOnUse" color-interpolation-filters="sRGB">
<feFlood flood-opacity="0" result="BackgroundImageFix"/>
<feColorMatrix in="SourceAlpha" type="matrix" values="0 0 0 0 0 0 0 0 0 0 0 0 0 0 0 0 0 0 127 0"/>
<feOffset dy="4"/>
<feGaussianBlur stdDeviation="2"/>
<feColorMatrix type="matrix" values="0 0 0 0 0 0 0 0 0 0 0 0 0 0 0 0 0 0 0.25 0"/>
<feBlend mode="normal" in2="BackgroundImageFix" result="effect1_dropShadow"/>
<feBlend mode="normal" in="SourceGraphic" in2="effect1_dropShadow" result="shape"/>
</filter>
</defs>
</svg>
